<?xml version="1.0" encoding="UTF-8"?>
<svg version="1.1" xmlns="http://www.w3.org/2000/svg" width="500" height="500">
<path d="M0 0 C6.47731834 -0.15954818 12.55847976 0.21732295 18.9375 1.3125 C27.18626613 2.6404083 35.44368294 3.66542236 43.75 4.5625 C44.91998535 4.68931152 46.0899707 4.81612305 47.29541016 4.94677734 C49.5457068 5.19037108 51.79603104 5.43371008 54.04638672 5.67675781 C62.61144978 6.61411469 71.15008256 7.74719664 79.6875 8.90625 C93.16467615 10.73112846 106.63424083 12.49177368 120.1652832 13.87280273 C126.68579503 14.55842581 133.15384707 15.4544614 139.6328125 16.44921875 C148.49213349 17.80683378 157.36115034 18.9401534 166.26461792 19.96374512 C170.72561086 20.47754178 175.18503357 21.00465703 179.64453125 21.53125 C180.60388077 21.64442566 181.56323029 21.75760132 182.551651 21.87420654 C194.58217768 23.29842551 206.60540104 24.78178974 218.62731934 26.2767334 C221.16387492 26.59180167 223.70057754 26.90568854 226.23742676 27.21838379 C229.80320456 27.65814783 233.36845787 28.10194079 236.93359375 28.546875 C238.54786507 28.74500793 238.54786507 28.74500793 240.19474792 28.94714355 C241.18163101 29.0712561 242.1685141 29.19536865 243.18530273 29.32324219 C244.04679428 29.4302948 244.90828583 29.53734741 245.79588318 29.64764404 C248 30 248 30 251 31 C251.31982908 61.97297333 251.56736556 92.94550744 251.71491461 123.91974161 C251.73242313 127.58191379 251.75054378 131.2440827 251.76904297 134.90625 C251.77271531 135.63527827 251.77638766 136.36430655 251.78017129 137.11542659 C251.84098239 148.89819049 251.95130383 160.67999175 252.08013915 172.46218581 C252.21136605 184.56462611 252.28888619 196.66656458 252.31723893 208.76968706 C252.33467557 215.56295871 252.37637031 222.35422893 252.48022079 229.14677811 C252.57564826 235.54803815 252.60448541 241.94623499 252.58350754 248.34813881 C252.58734175 250.69031141 252.6149631 253.03259226 252.66887665 255.37414742 C253.09583008 274.88352986 253.09583008 274.88352986 245.92926419 282.53490961 C243.08016616 285.20861557 240.08540185 287.60339964 237 290 C236.67 290.66 236.34 291.32 236 292 C235.34 292 234.68 292 234 292 C234 292.66 234 293.32 234 294 C233.34 294 232.68 294 232 294 C232 294.66 232 295.32 232 296 C231.34 296 230.68 296 230 296 C230 296.66 230 297.32 230 298 C229.34 298 228.68 298 228 298 C228 298.66 228 299.32 228 300 C227.34 300 226.68 300 226 300 C226 300.66 226 301.32 226 302 C225.34 302 224.68 302 224 302 C223.75902588 302.5676709 223.51805176 303.1353418 223.26977539 303.72021484 C221.74577817 306.45643596 219.92221708 308.28631807 217.68359375 310.4765625 C216.83732422 311.311875 215.99105469 312.1471875 215.11914062 313.0078125 C214.23419922 313.87148438 213.34925781 314.73515625 212.4375 315.625 C210.68402618 317.34414185 208.93261425 319.06539013 207.18359375 320.7890625 C206.01654907 321.92915771 206.01654907 321.92915771 204.82592773 323.09228516 C202.93913872 324.87557625 202.93913872 324.87557625 202 327 C201.34 327 200.68 327 200 327 C200 327.66 200 328.32 200 329 C199.34 329 198.68 329 198 329 C198 329.66 198 330.32 198 331 C197.34 331 196.68 331 196 331 C195.7421875 331.58265625 195.484375 332.1653125 195.21875 332.765625 C193.90165983 335.1802903 192.44911616 336.81740177 190.5 338.75 C189.8915625 339.36359375 189.283125 339.9771875 188.65625 340.609375 C187 342 187 342 185 342 C185 342.66 185 343.32 185 344 C184.34 344 183.68 344 183 344 C183 344.66 183 345.32 183 346 C182.34 346 181.68 346 181 346 C180.74347656 346.57451904 180.48695313 347.14903809 180.22265625 347.7409668 C177.90415202 352.02473669 174.34843097 355.31710691 171 358.8125 C170.28199219 359.61365234 169.56398438 360.41480469 168.82421875 361.24023438 C168.09847656 361.99240234 167.37273437 362.74457031 166.625 363.51953125 C165.97789062 364.21151611 165.33078125 364.90350098 164.6640625 365.61645508 C160.38243924 367.84005836 156.65630817 366.71733297 152 366 C150.00554621 365.74402256 148.01104326 365.4883915 146.01589775 365.23786259 C142.87856708 364.84091775 139.74384072 364.42492048 136.60885239 364.0099411 C133.98447073 363.6625812 131.35983646 363.31718596 128.73513794 362.972229 C123.11486447 362.23320787 117.49491776 361.49172057 111.875 360.75 C104.56011544 359.7847857 97.24505038 358.82095768 89.9296875 357.859375 C89.02346146 357.74017637 88.11723541 357.62097775 87.18354797 357.49816704 C71.99545835 355.50230818 56.79914196 353.57767172 41.59469604 351.71051025 C31.67328607 350.48784112 21.7714872 349.15636676 11.87572098 347.74112511 C9.61042402 347.41756381 7.34478976 347.09646871 5.07901001 346.77630615 C4.38782389 346.67863827 3.69663776 346.58097038 2.98450661 346.48034286 C-7.75611616 344.97577987 -18.52540501 343.78474913 -29.30807495 342.62722778 C-40.22601667 341.45375548 -51.07702491 340.06165543 -61.91992188 338.3203125 C-66.64256761 337.5930694 -71.38777775 337.02167945 -76.12890625 336.4296875 C-79 336 -79 336 -82 335 C-82.4114729 303.07611227 -82.72960286 271.15298516 -82.91917593 239.22706155 C-82.94168609 235.44987261 -82.96498414 231.67268892 -82.98876953 227.89550781 C-82.99349112 227.14360386 -82.99821271 226.39169991 -83.00307737 225.617011 C-83.08120118 213.47451312 -83.22300574 201.33356404 -83.38875033 189.19198211 C-83.55764895 176.71439506 -83.65717577 164.23761364 -83.69359291 151.75893056 C-83.71817875 144.07049444 -83.79552101 136.38643626 -83.9424964 128.69934987 C-84.04976303 122.78433571 -84.06005523 116.87151328 -84.03593826 110.95550346 C-84.04085546 108.5439557 -84.07620295 106.132229 -84.14569855 103.72167778 C-84.47728886 91.61738473 -84.06724252 83.02083134 -75.51535976 73.85529745 C-65.32194826 64 -65.32194826 64 -62 64 C-62 63.34 -62 62.68 -62 62 C-61.34 62 -60.68 62 -60 62 C-60 61.34 -60 60.68 -60 60 C-59.34 60 -58.68 60 -58 60 C-58 59.34 -58 58.68 -58 58 C-57.34 58 -56.68 58 -56 58 C-55.773125 57.443125 -55.54625 56.88625 -55.3125 56.3125 C-53.62449964 53.33840412 -51.53323483 51.27991135 -49 49 C-48.34 49 -47.68 49 -47 49 C-47 48.34 -47 47.68 -47 47 C-46.34 47 -45.68 47 -45 47 C-45 46.34 -45 45.68 -45 45 C-44.34 45 -43.68 45 -43 45 C-43 44.34 -43 43.68 -43 43 C-42.34 43 -41.68 43 -41 43 C-40.75378906 42.42926758 -40.50757813 41.85853516 -40.25390625 41.27050781 C-38.79101003 38.6215719 -37.07354681 36.81451454 -34.9375 34.671875 C-33.74253906 33.47304687 -33.74253906 33.47304687 -32.5234375 32.25 C-31.27433594 31.0125 -31.27433594 31.0125 -30 29.75 C-28.75089844 28.48929688 -28.75089844 28.48929688 -27.4765625 27.203125 C-26.67992187 26.4090625 -25.88328125 25.615 -25.0625 24.796875 C-24.33160156 24.06823242 -23.60070312 23.33958984 -22.84765625 22.58886719 C-21 21 -21 21 -19 21 C-19 20.34 -19 19.68 -19 19 C-18.34 19 -17.68 19 -17 19 C-17 18.34 -17 17.68 -17 17 C-16.34 17 -15.68 17 -15 17 C-15 16.34 -15 15.68 -15 15 C-14.34 15 -13.68 15 -13 15 C-12.731875 14.401875 -12.46375 13.80375 -12.1875 13.1875 C-11.00082594 11.00152146 -9.90400887 9.58667406 -8 8 C-7.34 8 -6.68 8 -6 8 C-6 7.34 -6 6.68 -6 6 C-5.34 6 -4.68 6 -4 6 C-4 5.34 -4 4.68 -4 4 C-3.34 4 -2.68 4 -2 4 C-2 3.34 -2 2.68 -2 2 C-1.34 2 -0.68 2 0 2 C0 1.34 0 0.68 0 0 Z " fill="#121F2F" transform="translate(166,61)"/>
<path d="M0 0 C40.86160714 4.54017857 40.86160714 4.54017857 52.98144531 6.26660156 C64.13686969 7.85275529 75.2940593 9.31473169 86.5 10.5 C96.96229883 11.6133747 107.37812117 12.98017596 117.79830933 14.42669678 C130.15291387 16.13469736 142.52341544 17.69917427 154.90234375 19.21875 C156.10086975 19.36594294 156.10086975 19.36594294 157.3236084 19.51610947 C165.47877469 20.51708013 173.63453061 21.51311044 181.7911787 22.50193405 C184.91084947 22.88061413 188.03025782 23.26142855 191.14962959 23.64256287 C192.59719822 23.81885967 194.04488872 23.99415969 195.49271965 24.16828918 C207.0377721 25.55689782 218.4913491 27.27370237 230 29 C230 103.58 230 178.16 230 255 C220.6803202 254.41752001 211.50098942 253.83923966 202.25 252.765625 C201.19111572 252.64572205 200.13223145 252.52581909 199.04125977 252.40228271 C196.80935163 252.1486865 194.57766232 251.89315725 192.34619141 251.63574219 C189.08937965 251.26030351 185.83189438 250.89129556 182.57421875 250.5234375 C153.49786924 247.21766549 124.47564436 243.45172169 95.44921875 239.73828125 C94.35749485 239.59862568 93.26577095 239.45897011 92.14096451 239.31508255 C82.03216871 238.02177648 71.92342334 236.72808093 61.81518555 235.43041992 C56.19958813 234.7095867 50.58372503 233.9908546 44.96769142 233.27342796 C42.87044297 233.00512263 40.77328989 232.73607047 38.67624474 232.4661808 C35.7462457 232.08916129 32.81591122 231.71484963 29.88549805 231.34106445 C28.65156311 231.18129372 28.65156311 231.18129372 27.3927002 231.01829529 C18.27354499 229.8608805 9.14952034 228.9631074 0 228 C0 152.76 0 77.52 0 0 Z " fill="#71FED8" transform="translate(175,73)"/>
<path d="M0 0 C0.16348104 28.95459464 0.28694152 57.90912018 0.3626852 86.86408329 C0.36982418 89.53984173 0.37711342 92.21559972 0.38452148 94.89135742 C0.38635766 95.55642834 0.38819383 96.22149926 0.39008565 96.90672385 C0.42053573 107.6721338 0.47572242 118.4372818 0.54006957 129.20253641 C0.60555636 140.25068827 0.643893 151.2986956 0.65861946 162.34703153 C0.66774979 168.55201535 0.68922531 174.75640524 0.7401104 180.96119881 C0.78761642 186.80126191 0.80228201 192.64048636 0.79175377 198.48072433 C0.79367986 200.62414418 0.80760868 202.76759201 0.83443832 204.9108448 C0.86929633 207.83901772 0.86088866 210.7640292 0.84178162 213.692276 C0.86217151 214.53956758 0.8825614 215.38685916 0.90356916 216.25982624 C0.81868728 221.07559774 0.04617806 223.44989927 -3.4080801 226.898139 C-4.60509822 227.93242667 -5.80238193 228.96640709 -7 230 C-7.763125 230.969375 -8.52625 231.93875 -9.3125 232.9375 C-9.869375 233.618125 -10.42625 234.29875 -11 235 C-11.66 235 -12.32 235 -13 235 C-13.256604 235.59433838 -13.51320801 236.18867676 -13.77758789 236.80102539 C-15.11652953 239.20962283 -16.43443908 240.44599067 -18.55859375 242.18359375 C-23.32950605 246.22234167 -27.68228502 250.60798112 -32.0625 255.0625 C-36.7503837 259.8295041 -41.43442604 264.46258714 -46.56323242 268.75463867 C-48.27997233 270.2426744 -49.70787696 271.85157174 -51.125 273.625 C-54.44982754 277.54463614 -58.10335768 281.019351 -61.875 284.5 C-62.45910645 285.04092285 -63.04321289 285.5818457 -63.64501953 286.13916016 C-67.86870625 290 -67.86870625 290 -69 290 C-70.60903964 262.23935638 -71.79700448 234.48591923 -72.52322769 206.68761063 C-72.86992073 193.76841704 -73.34081746 180.87885406 -74.12988281 167.97851562 C-79.70191537 75.10030194 -79.70191537 75.10030194 -51.35147238 43.08902311 C-11.79933788 0 -11.79933788 0 0 0 Z " fill="#71FED8" transform="translate(164,80)"/>
<path d="M0 0 C6.47731834 -0.15954818 12.55847976 0.21732295 18.9375 1.3125 C27.18626613 2.6404083 35.44368294 3.66542236 43.75 4.5625 C44.91998535 4.68931152 46.0899707 4.81612305 47.29541016 4.94677734 C49.5457068 5.19037108 51.79603104 5.43371008 54.04638672 5.67675781 C62.61144978 6.61411469 71.15008256 7.74719664 79.6875 8.90625 C93.16467615 10.73112846 106.63424083 12.49177368 120.1652832 13.87280273 C126.68579503 14.55842581 133.15384707 15.4544614 139.6328125 16.44921875 C148.49240099 17.80687477 157.36171139 18.94032401 166.26544189 19.96401978 C170.72218519 20.47700454 175.17751137 21.00200152 179.6328125 21.52734375 C181.07090775 21.69679756 181.07090775 21.69679756 182.53805542 21.86967468 C195.90826505 23.45288374 209.26615132 25.13663437 222.625 26.8125 C223.89178589 26.97133667 225.15857178 27.13017334 226.46374512 27.29382324 C233.64270873 28.19419923 240.82147508 29.09613312 248 30 C248 30.33 248 30.66 248 31 C247.0925 31.144375 246.185 31.28875 245.25 31.4375 C242.78523044 31.86409473 240.41152893 32.35074221 238 33 C238 32.01 238 31.02 238 30 C236.02 30 234.04 30 232 30 C231.67 30.99 231.34 31.98 231 33 C230.34 33 229.68 33 229 33 C228.67 32.01 228.34 31.02 228 30 C227.01 30 226.02 30 225 30 C225.0309375 31.9490625 225.0309375 31.9490625 225.0625 33.9375 C225.08399454 35.29165633 225.07148199 36.64756083 225 38 C224.67 38.33 224.34 38.66 224 39 C215.21785164 38.75343695 206.40469149 37.38917784 197.69140625 36.328125 C196.32923961 36.16364025 194.96705657 35.99929119 193.6048584 35.83506775 C189.99946032 35.39962854 186.39446102 34.96097238 182.78956985 34.52135849 C180.55030111 34.24851362 178.31091822 33.97662382 176.07150269 33.70498657 C158.31692467 31.55028855 140.57317661 29.3406812 122.85775757 26.88143921 C112.83097289 25.48953278 102.80041732 24.28834787 92.73266602 23.2331543 C81.01429043 21.9643413 69.35804434 20.26252099 57.69036865 18.59954834 C45.0372282 16.79852458 32.39413212 15.14292907 19.67773438 13.84960938 C18.69095703 13.74841797 17.70417969 13.64722656 16.6875 13.54296875 C15.84574219 13.46071045 15.00398438 13.37845215 14.13671875 13.29370117 C12 13 12 13 9 12 C8.67 12.66 8.34 13.32 8 14 C7.01 14.33 6.02 14.66 5 15 C3.626439 16.49062573 3.626439 16.49062573 2.4375 18.3125 C2.00953125 18.93898438 1.5815625 19.56546875 1.140625 20.2109375 C-0.05343443 22.08381154 -1.10497582 23.96585414 -2 26 C-2.495 23.03 -2.495 23.03 -3 20 C-25.11 42.11 -47.22 64.22 -70 87 C-70.66 85.68 -71.32 84.36 -72 83 C-70.02 82.505 -70.02 82.505 -68 82 C-68 80.68 -68 79.36 -68 78 C-69.94603274 77.40929986 -69.94603274 77.40929986 -72 77 C-73.15811388 78.05270463 -73.15811388 78.05270463 -74 80 C-75.65 80 -77.3 80 -79 80 C-74.33477149 74.37780154 -69.48740595 68.83989204 -64 64 C-63.34 64 -62.68 64 -62 64 C-62 63.34 -62 62.68 -62 62 C-61.34 62 -60.68 62 -60 62 C-60 61.34 -60 60.68 -60 60 C-59.34 60 -58.68 60 -58 60 C-58 59.34 -58 58.68 -58 58 C-57.34 58 -56.68 58 -56 58 C-55.773125 57.443125 -55.54625 56.88625 -55.3125 56.3125 C-53.62449964 53.33840412 -51.53323483 51.27991135 -49 49 C-48.34 49 -47.68 49 -47 49 C-47 48.34 -47 47.68 -47 47 C-46.34 47 -45.68 47 -45 47 C-45 46.34 -45 45.68 -45 45 C-44.34 45 -43.68 45 -43 45 C-43 44.34 -43 43.68 -43 43 C-42.34 43 -41.68 43 -41 43 C-40.75378906 42.42926758 -40.50757813 41.85853516 -40.25390625 41.27050781 C-38.79101003 38.6215719 -37.07354681 36.81451454 -34.9375 34.671875 C-33.74253906 33.47304687 -33.74253906 33.47304687 -32.5234375 32.25 C-31.27433594 31.0125 -31.27433594 31.0125 -30 29.75 C-28.75089844 28.48929688 -28.75089844 28.48929688 -27.4765625 27.203125 C-26.67992187 26.4090625 -25.88328125 25.615 -25.0625 24.796875 C-24.33160156 24.06823242 -23.60070312 23.33958984 -22.84765625 22.58886719 C-21 21 -21 21 -19 21 C-19 20.34 -19 19.68 -19 19 C-18.34 19 -17.68 19 -17 19 C-17 18.34 -17 17.68 -17 17 C-16.34 17 -15.68 17 -15 17 C-15 16.34 -15 15.68 -15 15 C-14.34 15 -13.68 15 -13 15 C-12.731875 14.401875 -12.46375 13.80375 -12.1875 13.1875 C-11.00082594 11.00152146 -9.90400887 9.58667406 -8 8 C-7.34 8 -6.68 8 -6 8 C-6 7.34 -6 6.68 -6 6 C-5.34 6 -4.68 6 -4 6 C-4 5.34 -4 4.68 -4 4 C-3.34 4 -2.68 4 -2 4 C-2 3.34 -2 2.68 -2 2 C-1.34 2 -0.68 2 0 2 C0 1.34 0 0.68 0 0 Z " fill="#1D2A39" transform="translate(166,61)"/>
<path d="M0 0 C8.97128246 -0.2781793 17.63870678 0.8050594 26.5078125 1.96875 C28.08528745 2.17108042 29.662834 2.37285333 31.240448 2.57409668 C35.36087716 3.10120807 39.48029971 3.63580974 43.59954834 4.17205811 C47.81577594 4.71955529 52.03292575 5.2598512 56.25 5.80078125 C64.50091149 6.860202 72.75077202 7.9275496 81 9 C81 9.33 81 9.66 81 10 C80.0925 10.144375 79.185 10.28875 78.25 10.4375 C75.78523044 10.86409473 73.41152893 11.35074221 71 12 C71 11.01 71 10.02 71 9 C69.02 9 67.04 9 65 9 C64.67 9.99 64.34 10.98 64 12 C63.34 12 62.68 12 62 12 C61.505 10.515 61.505 10.515 61 9 C60.01 9 59.02 9 58 9 C58.020625 10.299375 58.04125 11.59875 58.0625 12.9375 C58.08399454 14.29165633 58.07148199 15.64756083 58 17 C57.505 17.495 57.505 17.495 57 18 C45.93781626 17.82638441 34.72113792 15.79870922 23.75 14.4375 C21.82945342 14.20095792 19.90888069 13.96462811 17.98828125 13.72851562 C13.32521574 13.15478996 8.66251336 12.57819498 4 12 C5.32 11.34 6.64 10.68 8 10 C5.02148438 10.09765625 5.02148438 10.09765625 2.04296875 10.1953125 C0 10 0 10 -3 8 C-3 5 -3 5 -2 2 C-1.34 2 -0.68 2 0 2 C0 1.34 0 0.68 0 0 Z " fill="#202D3C" transform="translate(333,82)"/>
<path d="M0 0 C0.33 0 0.66 0 1 0 C1.16344672 28.97186548 1.28692465 57.94366197 1.3626852 86.91589546 C1.36982423 89.59269372 1.37711347 92.26949153 1.38452148 94.94628906 C1.38635766 95.61162229 1.38819383 96.27695553 1.39008565 96.96245037 C1.42054362 107.73500221 1.47573467 118.50729251 1.54006957 129.27968921 C1.60553439 140.33348632 1.64388828 151.38713906 1.65861946 162.44112003 C1.66775358 168.64998399 1.68925306 174.85825482 1.7401104 181.06692886 C1.78758126 186.90945111 1.80228916 192.75113524 1.79175377 198.59383202 C1.79368144 200.73928442 1.80763117 202.88476449 1.83443832 205.03005028 C1.86924134 207.95857587 1.86090878 210.88393251 1.84178162 213.81253052 C1.86217151 214.66273494 1.8825614 215.51293936 1.90356916 216.38890755 C1.8406795 219.94796648 1.7432912 222.12568401 -0.61467731 224.89930701 C-2.34856598 226.39786533 -4.08762143 227.73985504 -6 229 C-6.33 227.68 -6.66 226.36 -7 225 C-6.01 225 -5.02 225 -4 225 C-1.13475996 218.50545591 -0.85031827 212.28495087 -0.84178162 205.30606079 C-0.83684364 204.44338825 -0.83190566 203.5807157 -0.82681805 202.69190156 C-0.81149039 199.80843756 -0.80309527 196.92499574 -0.79467773 194.04150391 C-0.78509549 191.97167771 -0.77508521 189.90185346 -0.76467896 187.83203125 C-0.73766137 182.21687559 -0.71663475 176.60171156 -0.69667697 170.98652697 C-0.67479803 165.1168468 -0.64741867 159.24719236 -0.62062073 153.37753296 C-0.57071967 142.26421632 -0.52577123 131.15088538 -0.48259836 120.03754079 C-0.4332039 107.38466286 -0.37829395 94.73181075 -0.32291877 82.0789578 C-0.20913843 56.05266263 -0.10229078 30.02634268 0 4 C-1.65 4.66 -3.3 5.32 -5 6 C-3.35830472 3.97945196 -1.69088222 1.97956942 0 0 Z " fill="#8AF7E0" transform="translate(163,80)"/>
<path d="M0 0 C0.33 0.66 0.66 1.32 1 2 C0.25 4.0625 0.25 4.0625 -1 6 C-1.99 6.33 -2.98 6.66 -4 7 C-4 79.6 -4 152.2 -4 227 C-4.66 227.33 -5.32 227.66 -6 228 C-6.14009811 199.15849222 -6.24593596 170.31703536 -6.31087303 141.47525597 C-6.31703207 138.81048943 -6.32324011 136.14572311 -6.32958984 133.48095703 C-6.33116371 132.81861441 -6.33273757 132.1562718 -6.33435912 131.47385819 C-6.35884342 121.41623669 -6.40097278 111.35878531 -6.45263672 101.30126953 C-6.51239862 89.63079395 -6.55113974 77.96047136 -6.56453097 66.28984702 C-6.57236004 60.10899711 -6.59078783 53.92858496 -6.63438034 47.74787521 C-6.67507006 41.93167574 -6.6876761 36.11609483 -6.67864609 30.29976654 C-6.68029833 28.16400162 -6.69225444 26.02821626 -6.71523285 23.89257431 C-6.74506256 20.97745624 -6.73791975 18.06467715 -6.7215271 15.14950562 C-6.73900415 14.30319214 -6.7564812 13.45687867 -6.77448785 12.58491933 C-6.70569375 8.06290768 -6.20054371 5.70068404 -2.95490456 2.4281559 C-1.97978605 1.62686445 -1.00466755 0.82557301 0 0 Z " fill="#92F5E1" transform="translate(101,142)"/>
<path d="M0 0 C1.61766189 3.23532379 1.11166275 6.77413655 1.08229065 10.32681274 C1.07906152 11.19831825 1.07583239 12.06982375 1.07250541 12.96773851 C1.06038519 15.90513087 1.04102179 18.84243178 1.02172852 21.77978516 C1.0115905 23.87857359 1.00189632 25.97736422 0.99261475 28.07615662 C0.96608589 33.78869588 0.93331622 39.50118462 0.89946485 45.21368456 C0.86516909 51.17811347 0.83655902 57.14256951 0.80735779 63.10702515 C0.75115849 74.40821739 0.68981156 85.70937566 0.62663645 97.01053083 C0.55497864 109.87367409 0.48902712 122.73684459 0.42356598 135.60002065 C0.28874767 162.06671579 0.14672733 188.53336839 0 215 C1.65 214.67 3.3 214.34 5 214 C3.60840337 217.47899158 2.36748512 218.48052501 -1 220 C-1.0233253 191.46321852 -1.04097736 162.92643847 -1.05181217 134.38964939 C-1.05697592 121.14054102 -1.0640201 107.89143856 -1.07543945 94.64233398 C-1.0853839 83.09899118 -1.09185286 71.55565265 -1.09408849 60.01230568 C-1.09539601 53.89607745 -1.09848442 47.77986147 -1.10573006 41.66363716 C-1.11248651 35.91409479 -1.11461773 30.16456977 -1.11310768 24.4150238 C-1.11338418 22.29815514 -1.11539151 20.18128594 -1.11920547 18.0644207 C-1.12413687 15.18770583 -1.12300035 12.31105765 -1.12025452 9.43434143 C-1.12316736 8.5851366 -1.1260802 7.73593176 -1.12908131 6.86099344 C-1.11412121 1.11412121 -1.11412121 1.11412121 0 0 Z " fill="#7AF8DA" transform="translate(97,148)"/>
<path d="M0 0 C0.99 0.33 1.98 0.66 3 1 C3 1.66 3 2.32 3 3 C3.66 3.33 4.32 3.66 5 4 C4.34 4 3.68 4 3 4 C3 4.66 3 5.32 3 6 C2.34 6 1.68 6 1 6 C1 6.66 1 7.32 1 8 C1.66 8.33 2.32 8.66 3 9 C1.77213242 14.92483092 -0.20918155 17.88593054 -4.625 21.9375 C-5.140625 22.43056641 -5.65625 22.92363281 -6.1875 23.43164062 C-7.44712865 24.63295314 -8.7220398 25.81820737 -10 27 C-10.66 25.68 -11.32 24.36 -12 23 C-10.68 22.67 -9.36 22.34 -8 22 C-8 20.68 -8 19.36 -8 18 C-9.94603274 17.40929986 -9.94603274 17.40929986 -12 17 C-13.15811388 18.05270463 -13.15811388 18.05270463 -14 20 C-15.65 20 -17.3 20 -19 20 C-14.33477149 14.37780154 -9.48740595 8.83989204 -4 4 C-3.34 4 -2.68 4 -2 4 C-2 3.34 -2 2.68 -2 2 C-1.34 2 -0.68 2 0 2 C0 1.34 0 0.68 0 0 Z " fill="#0B2831" transform="translate(106,121)"/>
<path d="M0 0 C0.66 0.33 1.32 0.66 2 1 C2 5.62 2 10.24 2 15 C0.02 14.34 -1.96 13.68 -4 13 C-3.67 13.99 -3.34 14.98 -3 16 C-4.33727591 18.67455183 -5.73288323 18.98881385 -8.4375 20.1875 C-9.24058594 20.55230469 -10.04367188 20.91710937 -10.87109375 21.29296875 C-13 22 -13 22 -15 21 C-14.01 20.67 -13.02 20.34 -12 20 C-12.33 19.01 -12.66 18.02 -13 17 C-13.4125 17.474375 -13.825 17.94875 -14.25 18.4375 C-16.2004723 20.17899313 -17.48852019 20.46553219 -20 21 C-15.76183463 15.93376232 -11.32591037 11.19961931 -6.625 6.5625 C-5.98433594 5.92634766 -5.34367188 5.29019531 -4.68359375 4.63476562 C-3.12469121 3.08749668 -1.56348584 1.54263508 0 0 Z " fill="#172133" transform="translate(145,82)"/>
<path d="M0 0 C1.98 0.66 3.96 1.32 6 2 C4.6415798 5.04332765 3.11536976 7.12309151 0.7421875 9.453125 C-0.19560547 10.38125 -0.19560547 10.38125 -1.15234375 11.328125 C-1.80332031 11.96234375 -2.45429688 12.5965625 -3.125 13.25 C-3.78371094 13.8996875 -4.44242188 14.549375 -5.12109375 15.21875 C-6.74296643 16.81711727 -8.3693281 18.41061897 -10 20 C-12.475 19.01 -12.475 19.01 -15 18 C-15 17.34 -15 16.68 -15 16 C-15.66 15.67 -16.32 15.34 -17 15 C-17.33 14.34 -17.66 13.68 -18 13 C-17.34 13 -16.68 13 -16 13 C-15.95875 12.38125 -15.9175 11.7625 -15.875 11.125 C-15.58625 10.42375 -15.2975 9.7225 -15 9 C-13.01276732 8.29618843 -11.01222047 7.6288189 -9 7 C-8.67 6.01 -8.34 5.02 -8 4 C-7.01 4.66 -6.02 5.32 -5 6 C-5.66 6 -6.32 6 -7 6 C-7 6.66 -7 7.32 -7 8 C-6.236875 7.67 -5.47375 7.34 -4.6875 7 C-2 6 -2 6 1 6 C0.67 4.02 0.34 2.04 0 0 Z " fill="#0D1C2B" transform="translate(140,94)"/>
<path d="M0 0 C2.31 0 4.62 0 7 0 C7 0.66 7 1.32 7 2 C10.465 1.505 10.465 1.505 14 1 C14 1.66 14 2.32 14 3 C13.01 3.495 13.01 3.495 12 4 C12 5.32 12 6.64 12 8 C12.99 8.33 13.98 8.66 15 9 C14.67 9.33 14.34 9.66 14 10 C16.64 10 19.28 10 22 10 C22.33 10.66 22.66 11.32 23 12 C14.13911833 12.29211698 5.73952546 11.44796872 -3 10 C-2.50886719 9.40703125 -2.01773437 8.8140625 -1.51171875 8.203125 C0.44797452 5.34713792 0.23112125 3.38977829 0 0 Z " fill="#0C1A29" transform="translate(319,81)"/>
<path d="M0 0 C1.29374783 3.03749491 2.11255848 5.67952472 2 9 C-0.2277642 12.21494881 -2.93839479 14.58882165 -6 17 C-8.79960516 12.80059226 -8.95240308 8.93151087 -8 4 C-3.61904762 0 -3.61904762 0 0 0 Z " fill="#0E1C2C" transform="translate(154,79)"/>
<path d="M0 0 C0 3 0 3 -1 5 C-0.34 5.33 0.32 5.66 1 6 C0.67 6.99 0.34 7.98 0 9 C3.3 8.67 6.6 8.34 10 8 C10 10.83967231 9.59732819 13.23735711 9 16 C8.67 16 8.34 16 8 16 C7.67 14.02 7.34 12.04 7 10 C6.59007812 10.433125 6.18015625 10.86625 5.7578125 11.3125 C5.21898437 11.869375 4.68015625 12.42625 4.125 13 C3.59132812 13.556875 3.05765625 14.11375 2.5078125 14.6875 C1 16 1 16 -1 16 C-1.33 13.36 -1.66 10.72 -2 8 C-2.598125 8.495 -3.19625 8.99 -3.8125 9.5 C-6 11 -6 11 -9 11 C-9 10.34 -9 9.68 -9 9 C-8.34 9 -7.68 9 -7 9 C-7 8.34 -7 7.68 -7 7 C-6.34 7 -5.68 7 -5 7 C-5 6.34 -5 5.68 -5 5 C-4.34 5 -3.68 5 -3 5 C-2.690625 4.360625 -2.38125 3.72125 -2.0625 3.0625 C-1 1 -1 1 0 0 Z " fill="#0B2531" transform="translate(156,71)"/>
<path d="M0 0 C0.66 0 1.32 0 2 0 C2 0.66 2 1.32 2 2 C2.99 2.33 3.98 2.66 5 3 C3.02 3.99 3.02 3.99 1 5 C1.144375 5.70125 1.28875 6.4025 1.4375 7.125 C0.75597156 11.60361547 -2.49734998 13.39981848 -6 16 C-5.979375 15.236875 -5.95875 14.47375 -5.9375 13.6875 C-5.87057159 10.89814214 -5.87057159 10.89814214 -7 8 C-6.34 8 -5.68 8 -5 8 C-5.33 6.02 -5.66 4.04 -6 2 C-5.01 2.33 -4.02 2.66 -3 3 C-2.01 2.34 -1.02 1.68 0 1 C0 0.67 0 0.34 0 0 Z " fill="#0C1A2B" transform="translate(114,119)"/>
<path d="M0 0 C1.14242192 3.42726575 1.41029704 4.68165402 0 8 C-2.02921866 8.98624391 -4.01308065 9.62859718 -6.1875 10.2265625 C-6.785625 10.48179688 -7.38375 10.73703125 -8 11 C-8.33 11.99 -8.66 12.98 -9 14 C-9.66 14 -10.32 14 -11 14 C-11 14.99 -11 15.98 -11 17 C-11.66 17 -12.32 17 -13 17 C-13.33 17.66 -13.66 18.32 -14 19 C-16.5625 19.625 -16.5625 19.625 -19 20 C-13.17371096 12.84198775 -6.5617015 6.47408234 0 0 Z " fill="#7CF9DC" transform="translate(128,115)"/>
<path d="M0 0 C0 0.99 0 1.98 0 3 C0.185625 3.825 0.37125 4.65 0.5625 5.5 C1 8 1 8 0 11 C-1.9914056 11.38133299 -3.99279077 11.71325582 -6 12 C-6.33 11.67 -6.66 11.34 -7 11 C-7.33 11.99 -7.66 12.98 -8 14 C-9.65 14 -11.3 14 -13 14 C-8.88380164 9.08064098 -4.59589638 4.47352044 0 0 Z " fill="#363C4D" transform="translate(100,127)"/>
<path d="M0 0 C0.33 1.65 0.66 3.3 1 5 C1.66 5 2.32 5 3 5 C3 5.66 3 6.32 3 7 C2.34 7 1.68 7 1 7 C1 7.66 1 8.32 1 9 C-2 11 -2 11 -4.6875 10.625 C-5.450625 10.41875 -6.21375 10.2125 -7 10 C-7 6.18835834 -6.62734766 4.34510352 -5 1 C-3 0 -3 0 0 0 Z " fill="#0F192C" transform="translate(162,70)"/>
<path d="M0 0 C0.99 0.33 1.98 0.66 3 1 C3 1.66 3 2.32 3 3 C3.66 3.33 4.32 3.66 5 4 C4.34 4 3.68 4 3 4 C3 4.66 3 5.32 3 6 C2.34 6 1.68 6 1 6 C1 6.66 1 7.32 1 8 C1.66 8.33 2.32 8.66 3 9 C2.67 10.65 2.34 12.3 2 14 C1.34 14 0.68 14 0 14 C0 13.01 0 12.02 0 11 C-0.66 11 -1.32 11 -2 11 C-2.185625 10.071875 -2.185625 10.071875 -2.375 9.125 C-2.87197356 6.80879168 -2.87197356 6.80879168 -5 5 C-4.01 4.67 -3.02 4.34 -2 4 C-2 3.34 -2 2.68 -2 2 C-1.34 2 -0.68 2 0 2 C0 1.34 0 0.68 0 0 Z " fill="#0F1A2D" transform="translate(106,121)"/>
<path d="M0 0 C0 0.66 0 1.32 0 2 C-0.99 2.495 -0.99 2.495 -2 3 C-2.34740923 4.99760305 -2.67966043 6.99787771 -3 9 C-5 12 -5 12 -7.125 12.6875 C-7.74375 12.790625 -8.3625 12.89375 -9 13 C-9 12.34 -9 11.68 -9 11 C-9.66 11 -10.32 11 -11 11 C-11 10.34 -11 9.68 -11 9 C-10.34 9 -9.68 9 -9 9 C-8.6596875 8.1646875 -8.6596875 8.1646875 -8.3125 7.3125 C-6.49644015 4.11277551 -3.9498923 0 0 0 Z " fill="#232A3A" transform="translate(119,110)"/>
<path d="M0 0 C0.99 0.33 1.98 0.66 3 1 C3 2.32 3 3.64 3 5 C3.66 5 4.32 5 5 5 C5 5.99 5 6.98 5 8 C3.68 7.67 2.36 7.34 1 7 C1.33 7.99 1.66 8.98 2 10 C1.34 10 0.68 10 0 10 C0 10.66 0 11.32 0 12 C-0.99 11.67 -1.98 11.34 -3 11 C-2.34 11 -1.68 11 -1 11 C-1 10.2575 -1 9.515 -1 8.75 C-1 2 -1 2 0 0 Z " fill="#10192B" transform="translate(101,127)"/>
<path d="M0 0 C7.35251669 0.53410863 14.67902003 1.13140916 22 2 C22 2.33 22 2.66 22 3 C21.0925 3.144375 20.185 3.28875 19.25 3.4375 C16.78523044 3.86409473 14.41152893 4.35074221 12 5 C12 4.01 12 3.02 12 2 C10.02 2 8.04 2 6 2 C5.67 2.99 5.34 3.98 5 5 C4.34 5 3.68 5 3 5 C2.67 4.01 2.34 3.02 2 2 C1.34 1.34 0.68 0.68 0 0 Z " fill="#9A9EA5" transform="translate(392,89)"/>
<path d="M0 0 C0 3 0 3 -1 5 C-0.34 5.33 0.32 5.66 1 6 C0.21625 6.45375 -0.5675 6.9075 -1.375 7.375 C-4.03698031 8.88428742 -4.03698031 8.88428742 -6 11 C-6.99 11 -7.98 11 -9 11 C-9 10.34 -9 9.68 -9 9 C-8.34 9 -7.68 9 -7 9 C-7 8.34 -7 7.68 -7 7 C-6.34 7 -5.68 7 -5 7 C-5 6.34 -5 5.68 -5 5 C-4.34 5 -3.68 5 -3 5 C-2.690625 4.360625 -2.38125 3.72125 -2.0625 3.0625 C-1 1 -1 1 0 0 Z " fill="#4C515C" transform="translate(156,71)"/>
<path d="M0 0 C0.66 0 1.32 0 2 0 C1.62403791 2.78211944 1.32681541 4.5879284 -0.4375 6.8125 C-2 8 -2 8 -4 8 C-4.66 9.32 -5.32 10.64 -6 12 C-6.66 11.01 -7.32 10.02 -8 9 C-7.34 7.68 -6.68 6.36 -6 5 C-4.68 5.33 -3.36 5.66 -2 6 C-1.67 5.01 -1.34 4.02 -1 3 C-0.67 2.01 -0.34 1.02 0 0 Z " fill="#72E2CC" transform="translate(155,307)"/>
<path d="M0 0 C0 2.33333333 0 4.66666667 0 7 C-0.99 7 -1.98 7 -3 7 C-3.474375 7.474375 -3.94875 7.94875 -4.4375 8.4375 C-6.26872839 10.26872839 -7.51396654 10.47420648 -10 11 C-6.79239749 7.19364503 -3.59253891 3.45436433 0 0 Z " fill="#747880" transform="translate(135,92)"/>
<path d="M0 0 C0.33 1.32 0.66 2.64 1 4 C-0.6875 6.3125 -0.6875 6.3125 -3 8 C-4.32 7.67 -5.64 7.34 -7 7 C-4.69 4.69 -2.38 2.38 0 0 Z " fill="#072C33" transform="translate(163,303)"/>
<path d="M0 0 C0.99 0.33 1.98 0.66 3 1 C3 1.66 3 2.32 3 3 C3.66 3.33 4.32 3.66 5 4 C4.34 4 3.68 4 3 4 C3 4.66 3 5.32 3 6 C2.34 6 1.68 6 1 6 C0.67 6.66 0.34 7.32 0 8 C0 6.68 0 5.36 0 4 C-0.66 4.66 -1.32 5.32 -2 6 C-2.99 5.67 -3.98 5.34 -5 5 C-4.01 4.67 -3.02 4.34 -2 4 C-2 3.34 -2 2.68 -2 2 C-1.34 2 -0.68 2 0 2 C0 1.34 0 0.68 0 0 Z " fill="#393F4E" transform="translate(106,121)"/>
<path d="M0 0 C0 0.99 0 1.98 0 3 C-0.639375 3.268125 -1.27875 3.53625 -1.9375 3.8125 C-4.33131686 4.88667752 -4.33131686 4.88667752 -5 8 C-8.0625 9.1875 -8.0625 9.1875 -11 10 C-7.69984002 5.86062408 -4.82675589 2.41337795 0 0 Z " fill="#78ECD2" transform="translate(161,84)"/>
<path d="M0 0 C1.85625 0.061875 1.85625 0.061875 3.75 0.125 C4.08 1.115 4.41 2.105 4.75 3.125 C0.46 2.795 -3.83 2.465 -8.25 2.125 C-4.63863788 0.31931894 -3.705469 -0.12351563 0 0 Z " fill="#153F42" transform="translate(370.25,94.875)"/>
<path d="M0 0 C1.98 0.66 3.96 1.32 6 2 C4.60667426 5.36720387 3.0210714 6.9859524 0 9 C0.185625 7.88625 0.37125 6.7725 0.5625 5.625 C1.31680657 2.17431139 1.31680657 2.17431139 0 0 Z " fill="#0A2A32" transform="translate(140,94)"/>
<path d="M0 0 C0.66 0 1.32 0 2 0 C2 0.66 2 1.32 2 2 C1.01 2.495 1.01 2.495 0 3 C0 4.32 0 5.64 0 7 C-1.98 7 -3.96 7 -6 7 C-5.04882866 5.8274869 -4.08882991 4.66212985 -3.125 3.5 C-2.59132813 2.8503125 -2.05765625 2.200625 -1.5078125 1.53125 C-0.76144531 0.77328125 -0.76144531 0.77328125 0 0 Z " fill="#666C75" transform="translate(117,110)"/>
<path d="M0 0 C0.66 0.33 1.32 0.66 2 1 C1.67 2.65 1.34 4.3 1 6 C-1.31 6.33 -3.62 6.66 -6 7 C-4.02 4.69 -2.04 2.38 0 0 Z " fill="#6A6F78" transform="translate(145,82)"/>
<path d="M0 0 C2.31 0 4.62 0 7 0 C7.33 1.65 7.66 3.3 8 5 C6.68 5 5.36 5 4 5 C4 4.01 4 3.02 4 2 C2.68 1.67 1.36 1.34 0 1 C0 0.67 0 0.34 0 0 Z " fill="#7DF9DC" transform="translate(233,81)"/>
<path d="M0 0 C-1.62339805 1.70884005 -3.29319053 3.37446717 -5 5 C-5.66 5 -6.32 5 -7 5 C-7 3.68 -7 2.36 -7 1 C-3.375 -1.125 -3.375 -1.125 0 0 Z " fill="#80EFD8" transform="translate(128,339)"/>
<path d="M0 0 C0.33 0.99 0.66 1.98 1 3 C-1.31 4.98 -3.62 6.96 -6 9 C-6.66 8.67 -7.32 8.34 -8 8 C-5.36 5.36 -2.72 2.72 0 0 Z " fill="#052229" transform="translate(142,324)"/>
<path d="M0 0 C0.66 1.32 1.32 2.64 2 4 C1.34 4 0.68 4 0 4 C-0.33 4.66 -0.66 5.32 -1 6 C-3.5625 6.625 -3.5625 6.625 -6 7 C-4.02 4.69 -2.04 2.38 0 0 Z " fill="#7FE6D3" transform="translate(115,128)"/>
<path d="M0 0 C1.32 0.66 2.64 1.32 4 2 C3.34 3.32 2.68 4.64 2 6 C1.34 6 0.68 6 0 6 C-0.66 4.68 -1.32 3.36 -2 2 C-1.34 1.34 -0.68 0.68 0 0 Z " fill="#0F1A2E" transform="translate(253,75)"/>
<path d="M0 0 C-0.33 0.99 -0.66 1.98 -1 3 C-2.98 3.33 -4.96 3.66 -7 4 C-7.33 3.01 -7.66 2.02 -8 1 C-5.07175348 0.02391783 -3.04386724 -0.08226668 0 0 Z " fill="#1B212F" transform="translate(165,402)"/>
<path d="M0 0 C3 0 3 0 5 1 C2.03 3.475 2.03 3.475 -1 6 C-1.625 4.125 -1.625 4.125 -2 2 C-1.34 1.34 -0.68 0.68 0 0 Z " fill="#7DF9DC" transform="translate(116,344)"/>
<path d="M0 0 C0 2.62113708 -0.31292445 4.50935112 -1 7 C-2.65 7 -4.3 7 -6 7 C-4.02 4.69 -2.04 2.38 0 0 Z " fill="#042E33" transform="translate(133,333)"/>
<path d="M0 0 C0 2.62113708 -0.31292445 4.50935112 -1 7 C-2.65 7 -4.3 7 -6 7 C-4.02 4.69 -2.04 2.38 0 0 Z " fill="#6F7480" transform="translate(93,134)"/>
<path d="M0 0 C2.875 -0.125 2.875 -0.125 6 0 C6.66 0.66 7.32 1.32 8 2 C7.34 2 6.68 2 6 2 C5.67 2.99 5.34 3.98 5 5 C4.34 5 3.68 5 3 5 C2.67 4.01 2.34 3.02 2 2 C1.34 1.34 0.68 0.68 0 0 Z " fill="#676D78" transform="translate(392,89)"/>
<path d="M0 0 C0.66 0.33 1.32 0.66 2 1 C0.515 3.475 0.515 3.475 -1 6 C-2.32 5.67 -3.64 5.34 -5 5 C-3.35 3.35 -1.7 1.7 0 0 Z " fill="#87F6DF" transform="translate(149,94)"/>
<path d="M0 0 C2.31 0 4.62 0 7 0 C6.01 0.495 6.01 0.495 5 1 C5 1.66 5 2.32 5 3 C3.02 3 1.04 3 -1 3 C-0.67 2.01 -0.34 1.02 0 0 Z " fill="#0D1726" transform="translate(206,67)"/>
<path d="M0 0 C0.99 0.33 1.98 0.66 3 1 C2.67 2.32 2.34 3.64 2 5 C0.35 4.67 -1.3 4.34 -3 4 C-2.01 2.68 -1.02 1.36 0 0 Z " fill="#0E1727" transform="translate(164,65)"/>
<path d="M0 0 C-1.39332574 3.36720387 -2.9789286 4.9859524 -6 7 C-5.37162381 3.35541809 -4.14650034 0 0 0 Z " fill="#4B4F5A" transform="translate(340,414)"/>
<path d="" fill="#FFFFFF" transform="translate(0,0)"/>
<path d="" fill="#FFFFFF" transform="translate(0,0)"/>
<path d="" fill="#FFFFFF" transform="translate(0,0)"/>
<path d="" fill="#FFFFFF" transform="translate(0,0)"/>
<path d="" fill="#FFFFFF" transform="translate(0,0)"/>
<path d="" fill="#FFFFFF" transform="translate(0,0)"/>
<path d="" fill="#FFFFFF" transform="translate(0,0)"/>
<path d="" fill="#FFFFFF" transform="translate(0,0)"/>
<path d="" fill="#FFFFFF" transform="translate(0,0)"/>
<path d="" fill="#FFFFFF" transform="translate(0,0)"/>
<path d="" fill="#FFFFFF" transform="translate(0,0)"/>
<path d="" fill="#FFFFFF" transform="translate(0,0)"/>
<path d="" fill="#FFFFFF" transform="translate(0,0)"/>
<path d="" fill="#FFFFFF" transform="translate(0,0)"/>
<path d="" fill="#FFFFFF" transform="translate(0,0)"/>
<path d="" fill="#FFFFFF" transform="translate(0,0)"/>
<path d="" fill="#FFFFFF" transform="translate(0,0)"/>
<path d="" fill="#FFFFFF" transform="translate(0,0)"/>
<path d="" fill="#FFFFFF" transform="translate(0,0)"/>
<path d="" fill="#FFFFFF" transform="translate(0,0)"/>
<path d="" fill="#FFFFFF" transform="translate(0,0)"/>
<path d="" fill="#FFFFFF" transform="translate(0,0)"/>
<path d="" fill="#FFFFFF" transform="translate(0,0)"/>
<path d="" fill="#FFFFFF" transform="translate(0,0)"/>
<path d="" fill="#FFFFFF" transform="translate(0,0)"/>
<path d="" fill="#FFFFFF" transform="translate(0,0)"/>
<path d="" fill="#FFFFFF" transform="translate(0,0)"/>
<path d="" fill="#FFFFFF" transform="translate(0,0)"/>
<path d="" fill="#FFFFFF" transform="translate(0,0)"/>
<path d="" fill="#FFFFFF" transform="translate(0,0)"/>
<path d="" fill="#FFFFFF" transform="translate(0,0)"/>
<path d="" fill="#FFFFFF" transform="translate(0,0)"/>
<path d="" fill="#FFFFFF" transform="translate(0,0)"/>
<path d="" fill="#FFFFFF" transform="translate(0,0)"/>
<path d="" fill="#FFFFFF" transform="translate(0,0)"/>
<path d="" fill="#FFFFFF" transform="translate(0,0)"/>
<path d="" fill="#FFFFFF" transform="translate(0,0)"/>
<path d="" fill="#FFFFFF" transform="translate(0,0)"/>
<path d="" fill="#FFFFFF" transform="translate(0,0)"/>
<path d="" fill="#FFFFFF" transform="translate(0,0)"/>
<path d="" fill="#FFFFFF" transform="translate(0,0)"/>
<path d="" fill="#FFFFFF" transform="translate(0,0)"/>
<path d="" fill="#FFFFFF" transform="translate(0,0)"/>
<path d="" fill="#FFFFFF" transform="translate(0,0)"/>
<path d="" fill="#FFFFFF" transform="translate(0,0)"/>
<path d="" fill="#FFFFFF" transform="translate(0,0)"/>
<path d="" fill="#FFFFFF" transform="translate(0,0)"/>
</svg>
